<svg width="24" height="24" viewBox="0 0 24 24" fill="none" xmlns="http://www.w3.org/2000/svg">
  <path d="M12 3C11.2 3 10.5 3.3 10 3.8L8 5.8C7.2 6.6 6.1 7 5 7C3.9 7 2.8 6.6 2 5.8L0.5 4.3C0.2 4 0 3.6 0 3.2C0 2.5 0.5 2 1.2 2C1.6 2 2 2.2 2.3 2.5L3.8 4C4.3 4.5 5 4.8 5.7 4.8C6.4 4.8 7.1 4.5 7.6 4L9.6 2C10.1 1.5 10.8 1.2 11.5 1.2C12.2 1.2 12.9 1.5 13.4 2L15.4 4C15.9 4.5 16.6 4.8 17.3 4.8C18 4.8 18.7 4.5 19.2 4L20.7 2.5C21 2.2 21.4 2 21.8 2C22.5 2 23 2.5 23 3.2C23 3.6 22.8 4 22.5 4.3L21 5.8C20.2 6.6 19.1 7 18 7C16.9 7 15.8 6.6 15 5.8L13 3.8C12.5 3.3 11.8 3 12 3Z" fill="currentColor"/>
  <ellipse cx="12" cy="9" rx="6" ry="3" fill="currentColor"/>
  <path d="M12 12C10.3 12 8.7 12.6 7.5 13.8C6.3 15 5.7 16.6 5.7 18.3C5.7 19.2 6.4 19.9 7.3 19.9H16.7C17.6 19.9 18.3 19.2 18.3 18.3C18.3 16.6 17.7 15 16.5 13.8C15.3 12.6 13.7 12 12 12Z" fill="currentColor"/>
  <circle cx="10" cy="8" r="1" fill="white" opacity="0.8"/>
</svg>